#!OML:ASF G:\JayActor3\Patient Classification 1\Patient 1\Session 5\male.ASF
:FULLY-SPECIFIED
:DEGREES
675
root -0.705337 14.0978 -5.1621 60.2427 88.2886 409.847
lowerback 30.8828 -1.74073 0.520149
upperback 7.23925 -1.46775 -1.01695
thorax -8.7974 -0.41347 -0.948944
lowerneck -3.5547 0.436108 2.13543
upperneck -9.97328 0.790206 0.178172
head -2.53336 0.409736 -0.318227
rclavicle 5.36719e-015 -2.5842e-015
rhumerus -21.5715 5.65179 -85.967
rradius 48.8178
rwrist -3.87949
rhand -20.5851 -8.80855
rfingers 7.12502
rthumb 5.77495 -38.7099
lclavicle 5.36719e-015 -2.5842e-015
lhumerus -20.4269 -9.36656 83.0099
lradius 42.4518
lwrist 26.0205
lhand -18.3871 12.3224
lfingers 7.12502
lthumb 7.89673 42.1549
rfemur -73.3651 -1.37652 26.5533
rtibia 69.9843
rfoot -12.3213 -16.5345
rtoes 11.2288
lfemur -45.1725 9.38545 -27.3971
ltibia 87.4278
lfoot -28.8896 1.81964
ltoes -23.5216
676
root -0.818201 14.1016 -5.18067 59.3878 88.2277 409.063
lowerback 30.9742 -1.73244 0.500205
upperback 7.25811 -1.46296 -1.05362
thorax -8.81975 -0.40929 -0.980105
lowerneck -3.58822 0.434689 2.13039
upperneck -9.9555 0.788807 0.195759
head -2.52152 0.40904 -0.311508
rclavicle 1.0138e-014 6.16232e-015
rhumerus -21.5081 5.62601 -85.9892
rradius 48.7844
rwrist -3.98385
rhand -20.4782 -9.01538
rfingers 7.12502
rthumb 5.87811 -38.9138
lclavicle 1.0138e-014 6.16232e-015
lhumerus -20.3391 -9.37596 83.0216
lradius 42.3481
lwrist 25.9547
lhand -18.3872 12.3254
lfingers 7.12502
lthumb 7.89661 42.1579
rfemur -73.6147 -1.31505 26.3313
rtibia 69.6419
rfoot -11.2947 -16.7366
rtoes 11.1668
lfemur -45.3499 9.39001 -27.634
ltibia 87.0933
lfoot -29.2392 2.01421
ltoes -23.1673
677
root -0.930895 14.1067 -5.19939 58.5321 88.1562 408.269
lowerback 31.0604 -1.71975 0.472238
upperback 7.27467 -1.45554 -1.09018
thorax -8.84195 -0.403921 -1.00754
lowerneck -3.61934 0.432299 2.11654
upperneck -9.94346 0.786724 0.216971
head -2.51206 0.408231 -0.302185
rclavicle 2.48481e-015 -4.1546e-014
rhumerus -21.4423 5.59828 -86.0032
rradius 48.7166
rwrist -4.04725
rhand -20.404 -9.08002
rfingers 7.12502
rthumb 5.94978 -38.9765
lclavicle 2.48481e-015 -4.1546e-014
lhumerus -20.2523 -9.37284 83.0379
lradius 42.2389
lwrist 25.8766
lhand -18.368 12.3287
lfingers 7.12502
lthumb 7.91512 42.1605
rfemur -73.89 -1.25589 26.0847
rtibia 69.3272
rfoot -10.2101 -16.9266
rtoes 10.9342
lfemur -45.528 9.40533 -27.8939
ltibia 86.7339
lfoot -29.5745 2.23739
ltoes -22.7665
678
root -1.04313 14.1135 -5.21824 57.817 88.08 407.611
lowerback 31.1467 -1.70547 0.438803
upperback 7.29109 -1.44767 -1.12491
thorax -8.86404 -0.398237 -1.02996
lowerneck -3.65215 0.429665 2.10176
upperneck -9.93317 0.784092 0.234492
head -2.50289 0.407297 -0.293876
rclavicle 1.58034e-014 4.77083e-015
rhumerus -21.3738 5.57886 -86.0097
rradius 48.6348
rwrist -4.09641
rhand -20.3471 -9.09533
rfingers 7.12502
rthumb 6.00467 -38.9902
lclavicle 1.58034e-014 4.77083e-015
lhumerus -20.1745 -9.36197 83.0596
lradius 42.1412
lwrist 25.7987
lhand -18.3601 12.3329
lfingers 7.12502
lthumb 7.92282 42.1644
rfemur -74.1776 -1.20656 25.8101
rtibia 69.0385
rfoot -9.07062 -17.0906
rtoes 10.4933
lfemur -45.6979 9.42083 -28.1703
ltibia 86.3482
lfoot -29.887 2.48393
ltoes -22.3097
679
root -1.15479 14.1212 -5.23716 57.2123 88.0028 407.058
lowerback 31.2325 -1.69089 0.404937
upperback 7.30592 -1.43957 -1.15743
thorax -8.88763 -0.392496 -1.04975
lowerneck -3.68612 0.425383 2.08775
upperneck -9.92692 0.779048 0.247761
head -2.49488 0.405261 -0.287042
rclavicle 1.39149e-015 -7.35503e-015
rhumerus -21.3048 5.57001 -86.0088
rradius 48.5502
rwrist -4.1411
rhand -20.2827 -9.09536
rfingers 7.12502
rthumb 6.06686 -38.9885
lclavicle 1.39149e-015 -7.35503e-015
lhumerus -20.1052 -9.35006 83.087
lradius 42.0551
lwrist 25.7315
lhand -18.3658 12.353
lfingers 7.12502
lthumb 7.91727 42.1848
rfemur -74.4766 -1.16659 25.505
rtibia 68.7712
rfoot -7.90741 -17.201
rtoes 9.87919
lfemur -45.8704 9.42897 -28.455
ltibia 85.9474
lfoot -30.1743 2.72776
ltoes -21.7562
680
root -1.26581 14.1298 -5.25607 56.6687 87.9264 406.566
lowerback 31.3238 -1.67597 0.369293
upperback 7.32143 -1.43106 -1.18647
thorax -8.91279 -0.386434 -1.06475
lowerneck -3.72086 0.42049 2.07632
upperneck -9.92517 0.772863 0.255058
head -2.48823 0.402739 -0.282552
rclavicle 2.5842e-015 -2.72335e-014
rhumerus -21.234 5.57427 -85.9993
rradius 48.4635
rwrist -4.18191
rhand -20.2227 -9.06991
rfingers 7.12502
rthumb 6.12479 -38.9614
lclavicle 2.5842e-015 -2.72335e-014
lhumerus -20.0492 -9.34286 83.1196
lradius 41.9911
lwrist 25.684
lhand -18.3836 12.3958
lfingers 7.12502
lthumb 7.90009 42.2281
rfemur -74.7705 -1.13473 25.1654
rtibia 68.5187
rfoot -6.77027 -17.2256
rtoes 9.02272
lfemur -46.0406 9.42707 -28.7404
ltibia 85.535
lfoot -30.4279 2.97309
ltoes -21.1352
681
root -1.37608 14.1394 -5.27463 56.0775 87.8597 406.03
lowerback 31.4234 -1.66175 0.338585
upperback 7.3355 -1.42131 -1.2099
thorax -8.94349 -0.379839 -1.07671
lowerneck -3.75317 0.414665 2.06989
upperneck -9.92323 0.765019 0.258048
head -2.48194 0.399281 -0.280271
rclavicle -1.85864e-014 -6.75868e-015
rhumerus -21.1696 5.59267 -85.9835
rradius 48.3806
rwrist -4.22736
rhand -20.1483 -9.03379
rfingers 7.12502
rthumb 6.19665 -38.9232
lclavicle -1.85864e-014 -6.75868e-015
lhumerus -20.0085 -9.34159 83.1576
lradius 41.9438
lwrist 25.6526
lhand -18.4051 12.4396
lfingers 7.12502
lthumb 7.87937 42.2728
rfemur -75.046 -1.10815 24.8007
rtibia 68.2735
rfoot -5.70989 -17.1299
rtoes 7.70126
lfemur -46.2063 9.413 -29.0087
ltibia 85.1171
lfoot -30.6492 3.20521
ltoes -20.4308
682
root -1.48537 14.1493 -5.29266 55.5154 87.8044 405.526
lowerback 31.5263 -1.64915 0.310487
upperback 7.35213 -1.41172 -1.22653
thorax -8.97262 -0.37318 -1.08246
lowerneck -3.78229 0.408901 2.06504
upperneck -9.92695 0.757264 0.258091
head -2.47811 0.395883 -0.279236
rclavicle -1.59028e-015 -3.18055e-015
rhumerus -21.1078 5.62324 -85.9603
rradius 48.3018
rwrist -4.27255
rhand -20.0665 -8.98678
rfingers 7.12502
rthumb 6.2756 -38.8738
lclavicle -1.59028e-015 -3.18055e-015
lhumerus -19.9703 -9.34031 83.2023
lradius 41.9025
lwrist 25.6305
lhand -18.4236 12.4819
lfingers 7.12502
lthumb 7.86147 42.3157
rfemur -75.2888 -1.08913 24.4134
rtibia 68.0387
rfoot -4.8108 -16.8611
rtoes 5.76807
lfemur -46.3685 9.38397 -29.2556
ltibia 84.7006
lfoot -30.8342 3.41792
ltoes -19.6676
683
root -1.59345 14.1585 -5.31006 54.8391 87.7641 404.917
lowerback 31.6337 -1.63825 0.287801
upperback 7.37157 -1.40134 -1.23521
thorax -9.00049 -0.366044 -1.08268
lowerneck -3.8055 0.402875 2.06426
upperneck -9.93232 0.749038 0.256171
head -2.47586 0.392092 -0.279547
rclavicle 1.50082e-014 1.25234e-014
rhumerus -21.0517 5.67149 -85.9318
rradius 48.2277
rwrist -4.32043
rhand -19.9689 -8.94454
rfingers 7.12502
rthumb 6.36982 -38.8288
lclavicle 1.50082e-014 1.25234e-014
lhumerus -19.9315 -9.33346 83.2527
lradius 41.8579
lwrist 25.6072
lhand -18.435 12.4995
lfingers 7.12502
lthumb 7.85051 42.3337
rfemur -75.4906 -1.0762 24.0189
rtibia 67.828
rfoot -4.14676 -16.3913
rtoes 3.18197
lfemur -46.5284 9.33946 -29.4711
ltibia 84.298
lfoot -30.9976 3.62281
ltoes -18.9054
684
root -1.69997 14.1667 -5.32663 54.0848 87.7388 404.238
lowerback 31.7409 -1.62679 0.272202
upperback 7.39547 -1.38668 -1.23616
thorax -9.02295 -0.356805 -1.07992
lowerneck -3.82494 0.393988 2.06813
upperneck -9.93871 0.736859 0.25318
head -2.47466 0.386145 -0.28097
rclavicle -7.25564e-015 1.15295e-014
rhumerus -21.0027 5.7161 -85.8961
rradius 48.156
rwrist -4.36211
rhand -19.8707 -8.89067
rfingers 7.12502
rthumb 6.4646 -38.772
lclavicle -7.25564e-015 1.15295e-014
lhumerus -19.8885 -9.33209 83.3118
lradius 41.8091
lwrist 25.5836
lhand -18.4403 12.4953
lfingers 7.12502
lthumb 7.84534 42.3297
rfemur -75.6468 -1.07323 23.6285
rtibia 67.664
rfoot -3.78365 -15.7172
rtoes 0.14211
lfemur -46.6881 9.28143 -29.6545
ltibia 83.9165
lfoot -31.1424 3.81466
ltoes -18.1744
685
root -1.80472 14.1728 -5.34224 53.1868 87.7292 403.419
lowerback 31.8394 -1.61448 0.265018
upperback 7.42223 -1.36734 -1.22931
thorax -9.03784 -0.34548 -1.07505
lowerneck -3.82967 0.382394 2.07066
upperneck -9.95101 0.721817 0.255988
head -2.47808 0.378551 -0.280392
rclavicle -2.68359e-015 1.39149e-015
rhumerus -20.9649 5.75315 -85.8553
rradius 48.0884
rwrist -4.39219
rhand -19.7632 -8.84332
rfingers 7.12502
rthumb 6.56837 -38.7215
lclavicle -2.68359e-015 1.39149e-015
lhumerus -19.8416 -9.33763 83.3778
lradius 41.7524
lwrist 25.5597
lhand -18.4373 12.4753
lfingers 7.12502
lthumb 7.84828 42.3096
rfemur -75.7646 -1.07925 23.2587
rtibia 67.579
rfoot -3.75198 -14.8806
rtoes -3.01088
lfemur -46.8587 9.21179 -29.8038
ltibia 83.5676
lfoot -31.2766 3.99036
ltoes -17.4798
686
root -1.90752 14.177 -5.35694 52.0905 87.7288 402.407
lowerback 31.9314 -1.59823 0.265195
upperback 7.44995 -1.34029 -1.21815
thorax -9.04839 -0.330724 -1.07259
lowerneck -3.82055 0.367592 2.07502
upperneck -9.96124 0.702848 0.264476
head -2.48332 0.368628 -0.278337
rclavicle 1.59028e-015 1.41137e-014
rhumerus -20.9426 5.77433 -85.8127
rradius 48.0192
rwrist -4.41164
rhand -19.6602 -8.80238
rfingers 7.12502
rthumb 6.66788 -38.6774
lclavicle 1.59028e-015 1.41137e-014
lhumerus -19.8015 -9.36041 83.4479
lradius 41.6983
lwrist 25.5399
lhand -18.4251 12.4546
lfingers 7.12502
lthumb 7.86003 42.2885
rfemur -75.8461 -1.09215 22.9158
rtibia 67.608
rfoot -4.0568 -13.9573
rtoes -5.97318
lfemur -47.0363 9.13945 -29.9257
ltibia 83.2525
lfoot -31.4032 4.15905
ltoes -16.84
